<svg xmlns="http://www.w3.org/2000/svg" width="90" height="84" viewBox="0 0 90 84">
    <path fill="#423F6A" fill-rule="nonzero" d="M89.029 46.257c.559-.71.812-1.686.812-3.041 0-3.122-2.386-5.467-4.126-7.179-.155-.154-.308-.302-.451-.445-1.747-1.75-4.909-2.041-7.772-2.093a65.46 65.46 0 0 0-1.17-.011h-11.52c3.024-.754 5.634-2.232 6.393-5.015 1.958-7.176.988-17.263-1.188-21.485l-.033-.062C67.884 2.87 67.021 1.19 62.67.769 58.813.395 53.247.631 53.011.642a.987.987 0 0 0-.576.216c-.035.028-3.629 2.873-7.665 2.873h-2.198c-4.035 0-7.629-2.844-7.663-2.871a.984.984 0 0 0-.578-.218c-.236-.011-5.802-.247-9.659.127-4.351.421-5.215 2.101-7.305 6.157l-.033.062c-2.175 4.222-3.144 14.309-1.187 21.485.758 2.781 3.364 4.259 6.385 5.015h-9.846c-.385 0-.776.003-1.169.011-2.863.052-6.025.343-7.774 2.093-2.38 2.381-3.586 4.946-3.586 7.624 0 2.48.829 3.711 2.885 4.296.215 7.222.896 22.633 2.434 27.805 1.491 5.017 3.604 8.125 9.521 8.125h59.35c5.915 0 8.029-3.108 9.522-8.125 1.525-5.136 2.21-20.362 2.428-27.647.681-.135 1.251-.321 1.72-.573a2.772 2.772 0 0 0 1.012-.84zm-34.406-8.595l-2.949 1.542c1.093-.895 2.206-2.164 3.149-3.941 2.592-4.882 3.84-5.284 4.017-5.316a.62.62 0 0 0 .731-.231.62.62 0 0 0-.164-.858c-.104-.072-.403-.227-.888-.106-1.254.311-2.866 2.307-4.789 5.932-1.469 2.769-3.359 4.119-4.724 4.738.228-1.546.242-4.779-.311-11.572-.074-.9-.146-1.663-.204-2.202-.104-.924-.155-1.436-.79-1.391-.629.044-.612.603-.59 1.376.017.549.057 1.375.118 2.451.297 5.208-.525 8.029-1.464 9.558l-1.297 1.411a2.47 2.47 0 0 1-.512.257c-.948-1.979-5.298-11.585-8.24-18.109a.619.619 0 0 0-1.127.509c3.074 6.818 8.27 18.308 8.519 18.642.02.025.049.064.093.103h-1.16l-6.32-2.059-8.599-21.157c.871-.997 3.686-3.774 8.362-4.227a12.6 12.6 0 0 1 1.194-.061c2.144 0 3.313.646 4.668 1.396 1.536.85 3.277 1.812 6.542 1.812 4.457 0 14.973 1.138 17.466 11.545-8.079 7.083-10.193 9.322-10.731 9.958zm-36.567-9.708c-1.812-6.645-.93-16.24 1.039-20.059l.031-.062c2.036-3.955 2.46-4.777 5.737-5.094 3.216-.312 7.847-.176 9.074-.131.991.73 4.531 3.104 8.635 3.104h2.198c4.104 0 7.644-2.374 8.635-3.104 1.225-.044 5.855-.181 9.074.131 3.275.317 3.699 1.139 5.735 5.094l.033.062c1.968 3.819 2.852 13.414 1.039 20.059-.591 2.162-3.043 3.293-5.945 3.84a528.833 528.833 0 0 1 3.539-3.125.862.862 0 0 0 .277-.829c-1.042-4.98-3.777-8.661-8.128-10.938-3.908-2.045-8.217-2.474-11.142-2.474-2.817 0-4.22-.776-5.705-1.598-1.435-.792-2.916-1.611-5.506-1.611-.431 0-.888.022-1.361.069-6.499.628-9.759 5.109-9.894 5.298a.866.866 0 0 0-.097.829l6.004 14.774c-4.892.242-12.192-.276-13.272-4.235zM2.136 43.216c0-2.165.984-4.201 3.008-6.227 1.272-1.273 4.268-1.472 6.411-1.512.379-.007.758-.009 1.132-.009h1.394c.006.015.008.031.015.046.081.167 2.04 4.074 8.322 4.074h10.791c.761 1.766 3.413 6.924 8.374 6.924h6.802c4.961 0 7.612-5.158 8.374-6.924h10.79c6.283 0 8.241-3.907 8.322-4.074.006-.015.009-.032.015-.046h.437c.373 0 .752.001 1.134.009 2.142.041 5.139.239 6.411 1.514l.46.457c1.576 1.548 3.535 3.477 3.535 5.769 0 1.982 0 2.803-6.429 2.803H63.468a1 1 0 0 0-.442.104c-.062.032-6.542 3.192-16.541 3.192-7.27 0-12.486-1.708-15.603-2.729-1.393-.456-2.233-.732-2.862-.732-.556 0-2.213.02-4.413.045-4.292.048-10.778.12-15.041.12-6.43-.001-6.43-.822-6.43-2.804zm79.838 31.536c-1.687 5.673-3.894 6.712-7.626 6.712h-59.35c-3.732 0-5.938-1.039-7.625-6.712-1.406-4.729-2.117-19.441-2.346-26.894 1 .1 2.167.139 3.538.139 4.275 0 10.767-.073 15.063-.121 2.19-.025 3.838-.043 4.391-.043.312 0 1.296.321 2.247.633 3.017.988 8.632 2.829 16.218 2.829 7.234 0 12.642-1.55 15.395-2.559.902-.304 1.57-.567 1.982-.739h17.572c1.081 0 2.036-.023 2.885-.082-.233 7.469-.944 22.119-2.344 26.837z"/>
</svg>
