<svg xmlns="http://www.w3.org/2000/svg" width="101" height="103" viewBox="0 0 101 103">
    <g fill="#423F6A" fill-rule="nonzero" transform="rotate(-29 46.469 26.456)">
        <ellipse cx="15.064" cy="18.533" rx="2.39" ry="2.4"/>
        <path d="M75.734 82.4L57.944 4.267c-.265-1.2-.928-2.267-1.99-2.8C54.89.8 53.696.667 52.501.933l-48.855 11.2c-1.195.267-2.257.934-2.788 2C.195 15.2.062 16.4.328 17.6l17.79 78.133c.265 1.2.929 2.267 1.99 2.8.797.4 1.594.667 2.39.667.399 0 .664 0 1.062-.133l48.856-11.2c1.194-.267 2.256-.934 2.787-2 .531-1.067.797-2.267.531-3.467zM33.517 94.133L17.587 24l-2.523.533 15.93 70-8.23 1.867c-.531.133-1.062 0-1.46-.267-.399-.266-.797-.666-.797-1.2l-17.79-78c-.133-.533 0-1.066.266-1.466.265-.4.664-.8 1.195-.8L43.474 5.6l18.72 81.867-28.677 6.666zm39.297-9.6c-.266.4-.664.8-1.195.8l-1.991.4L51.04 3.867l1.992-.4h.398c.398 0 .664.133 1.062.266.398.267.797.667.797 1.2l17.79 78.134c.132.4 0 .933-.266 1.466z"/>
        <path d="M41.35 9.333L26.348 12.8 29.402 26l15.001-3.467-3.053-13.2zm-2.257 9.2l-2.92-2.133 1.327 6-1.991.4-1.328-6-1.726 3.2-1.726-.933 3.585-6.534 5.974 4.4-1.195 1.6zM44.802 24.533L29.8 28l13.674 60 15.002-3.467-13.674-60zM51.705 74.4l-6.24 1.333c-1.194.267-2.39-.533-2.655-1.6l-1.46-6.4c-.266-1.2.531-2.4 1.593-2.666L49.05 63.6c1.195-.267 2.39.533 2.655 1.6l1.46 6.4c.399 1.333-.398 2.533-1.46 2.8z"/>
    </g>
</svg>
