<svg xmlns="http://www.w3.org/2000/svg" width="125" height="74" viewBox="0 0 125 74">
    <path fill="#423F6A" fill-rule="nonzero" d="M112.532 24.024c2.645-.9 4.22-1.435 4.315-1.46-.732-.938-3.214-3.464-5.922-6.174-.29-.324-.57-.645-.868-.985a2.073 2.073 0 0 0-.705-.526c-3.251-3.024-7.46-5.96-12.065-7.896-.042-.028-.075-.063-.122-.087-10.275-5.822-20.68-9.273-31.807-4.22-2.167.984-4.92 2.309-6.65 4 1.078-1.056-7.984-2.563-9.15-2.707-2.675-.335-5.373 0-7.995.559-3.57.757-6.851 2.887-9.437 5.541-.446.458-.844.962-1.228 1.476-.193-.061-.523-.16-1.04-.36-.898-.348-1.928-.511-2.877-.614-7.588-.843-20.305.751-24.393 8.87-.17.33-.116.103-.16.18C1.198 21.745.305 32.67.305 32.67c-.042.52.1 1.042.398 1.465 0 0 26.654 31.771 30.59 35.58.01.014.016.028.025.044.038.032.083.062.125.093.136.125.247.217.3.24v-.01c2.605 2.01 6.153 3.486 9.779 3.691l81.232-25.157c4.916-1.82-.96-17.18-1.714-18.789-1.03-2.181-5.575-4.52-8.51-5.804zM67.662 5.332c8.694-3.17 17.92-.47 25.816 3.668.027.04.05.094.078.129.2.066.41.157.615.237.42.23.837.457 1.25.69.217.122.426.184.635.21 5.06 2.766 11.642 8.667 13.816 10.622l-22.306 7.46C79.362 15.845 66.44 10.84 61.573 9.338c1.581-1.08 2.85-2.827 6.089-4.006zM37.58 10.138c3.065-2.085 6.722-2.601 10.282-2.618 2.35-.012 4.666.55 6.939 1.112 1.31.323 3.092 1.511 4.57 1.534l-.01.059c.172.037 16.915 3.81 26.84 18.578l-25.612 8.563c-8.472-14.8-22.946-20.902-27.62-22.543 1.577-1.432 2.754-3.42 4.611-4.685zm-7.091 5.286c.202.11.43.176.66.213l-.025.107c.185.05 18.225 5.104 28.116 22.074l-23.53 7.87C33.006 34.679 9.745 21.845 9.8 21.829c-.504-.25-2.906-1.817-3.472-1.99 4.486-6.237 18.625-7.407 24.16-4.414zm-.57 46.65S3.97 33.948 3.454 31.765c-.39-1.647.686-8 .686-8 8.786 4.267 26.784 14.75 28.083 25.048.079.641.145 1.77.67 2.104.308.198 1.8-.275 2.045-.367 0 0 51.205-17.525 72.647-24.84 2.407 1.17 4.935 2.17 7.361 3.353-13.139 3.968-65.06 19.728-79.252 25.434-1.916.767-5.318 4.301-5.773 7.575zm91.484-19c.426 1.238-1.038 2.777-3.278 3.434L44.157 69.089c-1.694.864-7.91 1.108-9.208-2.411-1.055-2.872-.716-6.744 3.316-8.908 4.255-2.284 75.986-24.909 75.986-24.909 2.272-.671 4.064-.1 4.42.93l.277.801c.188.55-.053 1.8-.766 2.388L89.555 46.07l-46.931 14.54c-2.245.664-3.82 1.89-3.523 2.752l.232.67c.298.857 1.54 1.174 3.786.52l75.875-23.336c.248-.076.488-.156.722-.24.674.22 1.17.607 1.353 1.133l.334.964z"/>
</svg>
