<svg xmlns="http://www.w3.org/2000/svg" width="70" height="102" viewBox="0 0 70 102">
    <g fill="#423F6A" fill-rule="nonzero">
        <path d="M69.244 62.236c-1.34-12.471-5.12-25.432-9.387-33.135-2.926-5.136-6.461-8.193-10.606-9.17-3.291-.734-6.095 0-7.924.733l-.244-1.834c-.122-.734-.731-1.223-1.34-1.223h-.488L38.4 1.712c0-.734-.731-1.345-1.463-1.345L21.7.978c-.366 0-.732.122-.976.49-.243.244-.365.61-.365.977l.853 15.284h-1.829c-.365 0-.731.123-.975.49-.244.366-.366.61-.366.978l.244 6.725-6.46 2.934c-.367.122-.61.49-.732.856C-7.68 85.223 3.779 98.43 4.267 99.04c.244.245.487.367.853.49 12.191 1.711 22.31 2.322 30.355 2.322 19.262 0 27.43-3.423 27.918-3.668.243-.122.487-.244.61-.489 5.12-7.703 6.948-20.297 5.241-35.459zM23.284 3.668L35.72 3.18l.732 14.55H24.016l-.731-14.06zM61.93 95.617c-2.56.978-19.262 6.113-55.956 1.1-1.585-2.323-8.9-16.996 7.436-65.538l6.705-3.056c.488-.245.853-.734.853-1.345l-.244-6.236h17.8l.365 2.445c.122.49.366.856.853 1.1.488.245.976.123 1.341-.122 0 0 3.414-2.2 7.559-1.222 3.291.855 6.217 3.423 8.777 7.825 7.436 13.205 14.995 48.786 4.51 65.049z"/>
        <path d="M50.348 36.56c-2.56-.612-4.266.61-4.51.733-.61.489-.732 1.345-.244 1.956.488.612 1.34.734 1.95.245 0 0 .854-.612 2.195-.245.487.123 1.34.49 2.194 1.345-.853.367-1.829 1.223-2.438 2.935-2.316 6.236 1.219 22.253 6.095 27.633 1.341 1.467 2.682 1.957 3.658 1.957.365 0 .731 0 .975-.123 3.291-.856 4.267-5.624 2.682-13.694-.61-2.935-1.829-7.459-3.414-11.371 0-.245 0-.367-.121-.612-2.682-6.236-5.73-9.904-9.022-10.76zm9.143 33.869c-.61.122-1.34-.49-1.828-.979-4.145-4.646-7.559-19.44-5.608-24.82.488-1.224.975-1.346 1.22-1.346 2.072.734 7.68 14.428 7.557 23.11 0 2.2-.487 3.79-1.34 4.035zM41.205 54.656c0-5.992-5.608-9.293-9.63-9.66h-5.73c-2.439 0-4.755.978-6.583 2.568-2.073 1.834-3.17 4.402-3.17 7.214L13.41 76.42v.122c0 4.402 0 11.127 7.07 11.127h16.336c7.071 0 7.071-6.725 7.071-11.127v-.122l-2.682-21.764zm-4.389 30.323H20.481c-3.658 0-4.267-2.201-4.267-8.315l2.682-21.642V54.9c0-2.568 1.219-4.28 2.194-5.135a7.04 7.04 0 0 1 4.755-1.834h5.486c2.316.244 7.07 2.323 7.07 6.969v.122l2.682 21.765c0 6.113-.61 8.192-4.267 8.192zM26.82 5.258c-.732 0-1.341.733-1.341 1.467l.488 8.926c0 .733.61 1.345 1.34 1.345h.122c.732 0 1.341-.734 1.341-1.467l-.487-8.926c-.122-.856-.732-1.345-1.463-1.345zM32.062 5.258c-.731 0-1.341.733-1.341 1.467l.61 8.804c0 .733.61 1.345 1.34 1.345h.122c.732 0 1.341-.734 1.341-1.468l-.61-8.803c0-.856-.73-1.468-1.462-1.345z"/>
    </g>
</svg>
