<svg xmlns="http://www.w3.org/2000/svg" width="90" height="71" viewBox="0 0 90 71">
    <g fill="#423F6A" fill-rule="nonzero">
        <path d="M88 15.792c-3.643-3.684-12.937-10.22-34.247-12.604a1.47 1.47 0 0 0-.433.022C50.828 1.447 48.039.548 44.986.548c-3.05 0-5.836.897-8.326 2.657a1.468 1.468 0 0 0-.413-.017C14.937 5.571 5.643 12.108 2 15.792a4.64 4.64 0 0 0-1.072 4.772c.611 1.742 1.636 5.836 1.636 13.696 0 16.836 11.114 36.496 42.436 36.496s42.436-19.66 42.436-36.496c0-7.86 1.025-11.954 1.636-13.695A4.64 4.64 0 0 0 88 15.792zm-1.758 3.778c-.806 2.297-1.762 6.62-1.803 14.198a7.346 7.346 0 0 0-1.674-1.442c-3.783-2.355-9.221-1.122-16.173 3.633-1.362-11.043-4.14-22.574-9.672-29.341 18.611 2.664 26.393 8.7 28.947 11.284.43.435.578 1.09.375 1.668zm-82.11-1.669c2.554-2.58 10.328-8.613 28.918-11.28-5.522 6.764-8.293 18.28-9.652 29.314-6.934-4.735-12.359-5.961-16.136-3.61-.657.41-1.221.91-1.701 1.47-.039-7.594-.996-11.925-1.803-14.225a1.623 1.623 0 0 1 .375-1.669zm2.2 23.387c-.247-1.626.216-4.984 2.516-6.415 2.809-1.747 7.825-.156 14.173 4.465-1.014 10.201-.909 19.493-.79 23.556-10.622-5.612-14.508-14.919-15.9-21.606zm18.954 23.047c-.188-4.907-1.27-43.95 10.973-56.829 2.531-2.663 5.387-3.958 8.727-3.958 3.341 0 6.198 1.295 8.73 3.959 12.248 12.879 11.183 51.92 10.998 56.828-5.13 2.108-11.583 3.42-19.714 3.42-8.13 0-14.584-1.312-19.714-3.42zm42.481-1.44c.118-4.06.219-13.34-.796-23.531 6.364-4.642 11.4-6.241 14.208-4.491 2.177 1.355 2.705 4.432 2.547 6.137-1.342 6.705-5.188 16.194-15.959 21.885z"/>
        <path d="M55.763 18.46c-5.485-5.48-12.774 1.415-15.886 4.361A1.5 1.5 0 1 0 41.939 25c.235-.222.452-.414.678-.621.353.677.87 1.293 1.531 1.758.844.594 1.974.961 3.19.787-.145 1.197.228 2.3.817 3.134.461.652 1.06 1.17 1.714 1.529a71.954 71.954 0 0 1-2.184 2.275c-2.418 2.418-4.422 4.18-6.13 5.36a5.503 5.503 0 0 0-1.474-5.08 5.476 5.476 0 0 0-3.898-1.615 5.54 5.54 0 0 0-1.193.139c.13-.189.258-.376.404-.574a1.5 1.5 0 0 0-2.416-1.78c-1.292 1.756-5.226 7.097-.695 11.627 1.518 1.518 3.143 2.131 4.794 2.131 4.643 0 9.49-4.848 12.729-8.087 1.667-1.667 3.008-3.134 4.1-4.478.021-.023.04-.047.059-.07 1.268-1.57 2.189-2.968 2.817-4.284 2.05-4.29.577-7.093-1.02-8.69zM37.96 36.264c.98.98.98 2.574 0 3.554-.95.952-2.607.95-3.556 0a2.517 2.517 0 0 1 0-3.554 2.497 2.497 0 0 1 1.779-.737c.67 0 1.302.262 1.777.737zm13.03-13.028c-.17-.912-.228-2.065.36-2.653a1.624 1.624 0 0 1 2.292 0h.001c.631.633.631 1.66 0 2.292-.637.636-1.791.525-2.654.361zm-5.114.449c-.53-.374-.803-.997-.779-1.42 1.163-.907 2.175-1.564 3.056-2.011-.26.805-.37 1.838-.175 3.157-.586.477-1.353.802-2.102.274zm4.73 4.642c-.448-.634-.387-1.32.21-2.074.77.125 1.961.218 3.138-.164-.468.926-1.13 1.938-2.009 3.062-.354-.016-.949-.272-1.34-.824z"/>
    </g>
</svg>
