<svg xmlns="http://www.w3.org/2000/svg" width="99" height="84" viewBox="0 0 99 84">
    <g fill="#423F6A" fill-rule="nonzero">
        <path d="M42.331 9.671L49.5 5.083l6.36 4.07c.352-.258.804-.418 1.358-.42 1.961-.009 4.016-.168 6.038-.112L50.696.58a2.219 2.219 0 0 0-2.392 0l-14.561 9.32c2.528-.09 5.057-.176 7.576-.429.36-.036.704.044 1.012.2zM97.978 30.845l-14.042-8.987c.007 1.594-.318 3.2-.873 4.708l11.5 7.36v45.638H4.437V33.926L15.26 27a2.932 2.932 0 0 1-.332-1.125 83.993 83.993 0 0 1-.305-3.734l-13.6 8.705A2.218 2.218 0 0 0 0 32.713v49.07C0 83.006.993 84 2.218 84h94.564A2.218 2.218 0 0 0 99 81.782v-49.07c0-.755-.385-1.46-1.022-1.867z"/>
        <path d="M15.255 38.809c.636.5 1.287.976 1.95 1.437l-.143-11.965 13.754-.165c-1.15 1.698-2.64 3.69-4.571 5.996l1.902 8.051s3.297-4.77 6.551-9.95l.2 16.66c2.103.887 4.154 1.877 6.05 3.168l-.27-22.472c4.408 6.084 9.863 12.844 9.863 12.844l.685-8.244c-2.096-2.418-3.745-4.487-5.043-6.236l35.662-.426.166 13.837a64.442 64.442 0 0 0 2.651-1.66l-.303-25.34a6.24 6.24 0 0 0-6.307-6.157l-57.66.69a6.24 6.24 0 0 0-6.159 6.306l.277 23.182c.26.111.511.26.745.444zm62.828-27.952a3.566 3.566 0 0 1 3.604 3.518l.086 7.122-31.066.372c-.045-1.794-.217-4.37-.789-6.334 0 0-6.034-.349-9.385 1.915l-.073-6.143 37.623-.45zm-57.66.69l14.026-.168.078 6.532c-3.754-1.318-9.266.547-9.266.547-.035 1.157.085 2.465.265 3.712l-8.537.102-.085-7.122a3.566 3.566 0 0 1 3.52-3.603z"/>
        <path d="M96.782 84H2.218A2.218 2.218 0 0 1 0 81.782v-49.07a2.218 2.218 0 0 1 3.24-1.968L49.5 54.75l46.26-24.005A2.218 2.218 0 0 1 99 32.713v49.07A2.218 2.218 0 0 1 96.782 84zM4.437 79.564h90.126V36.363l-44.04 22.853a2.22 2.22 0 0 1-2.045 0L4.437 36.363v43.201z"/>
    </g>
</svg>
