<svg xmlns="http://www.w3.org/2000/svg" width="75" height="88" viewBox="0 0 75 88">
    <g fill="#423F6A" fill-rule="nonzero">
        <path d="M38.5 34.8v-5.1c0-2.7-2.1-4.8-4.7-5v-1.2c0-3-1.3-5.7-3.6-7.4-2.6-1.9-3.9-2.8-2.7-6.7.1-.3.6-1.6.6-2.6 0-3.5-2.9-6.4-6.4-6.4-3.5 0-6.4 2.9-6.4 6.4 0 1 .5 2.4.6 2.6 1.2 3.9-.1 4.9-2.7 6.7-2.2 1.6-3.6 4.4-3.6 7.4v1.2c-2.6.2-4.7 2.4-4.7 5v5.1c-2.5.9-4.3 3.3-4.3 6.1V81c0 3.6 2.9 6.5 6.5 6.5h29.1c3.6 0 6.5-2.9 6.5-6.5V40.9c.1-2.8-1.7-5.1-4.2-6.1zM15 18.6c2.8-2 5.7-4.1 3.8-10.1-.2-.5-.4-1.3-.4-1.6 0-1.9 1.5-3.4 3.4-3.4s3.4 1.5 3.4 3.4c0 .3-.2 1.1-.4 1.7-1.9 6 1 8.1 3.8 10.1 1.4 1 2.3 2.9 2.3 4.9v1.1H12.7v-1.1c0-2.1.9-4 2.3-5zm-4.9 9.1h23.4c1.1 0 2.1.9 2.1 2.1v4.7H8v-4.7c0-1.2.9-2.1 2.1-2.1zm-2.9 9.7h29.1c1.9 0 3.5 1.6 3.5 3.5v11.7c-2 1.6-4.8 1.5-6.7-.4L31.9 51c-3.1-3.1-8.2-3.1-11.4 0l-.9.9c-2 2-5.2 2-7.1 0-1.5-1.5-3.5-2.4-5.7-2.4-1.1 0-2.1.2-3.1.6v-9.2c0-1.9 1.6-3.5 3.5-3.5zm29.1 47.1H7.2c-1.9 0-3.5-1.6-3.5-3.5V53.6c.9-.7 2-1.1 3.1-1.1 1.3 0 2.6.5 3.6 1.5 3.1 3.1 8.2 3.1 11.4 0l.9-.9c2-2 5.2-2 7.1 0l1.3 1.3c1.6 1.6 3.6 2.3 5.7 2.3 1.1 0 2.1-.2 3.1-.6v25c-.1 1.9-1.7 3.4-3.6 3.4z"/>
        <path d="M27.6 45.7h5.7c.8 0 1.5-.7 1.5-1.5s-.7-1.5-1.5-1.5h-5.7c-.8 0-1.5.7-1.5 1.5s.7 1.5 1.5 1.5zM33.3 59.5h-5.7c-.8 0-1.5.7-1.5 1.5s.7 1.5 1.5 1.5h5.7c.8 0 1.5-.7 1.5-1.5s-.6-1.5-1.5-1.5zM33.3 76.3h-5.7c-.8 0-1.5.7-1.5 1.5s.7 1.5 1.5 1.5h5.7c.8 0 1.5-.7 1.5-1.5s-.6-1.5-1.5-1.5zM33.3 67.9h-2.9c-.8 0-1.5.7-1.5 1.5s.7 1.5 1.5 1.5h2.9c.8 0 1.5-.7 1.5-1.5s-.6-1.5-1.5-1.5zM69 66.8V18.7c0-3.4-2.8-6.1-6.1-6.1-3.4 0-6.1 2.8-6.1 6.1v48.1c-3.2 2.1-5.2 5.6-5.2 9.5 0 6.2 5.1 11.3 11.3 11.3 6.2 0 11.3-5.1 11.3-11.3 0-3.9-2-7.5-5.2-9.5zm-6.1 17.7c-4.6 0-8.3-3.7-8.3-8.3 0-3.1 1.7-5.9 4.4-7.3l.8-.4V18.7c0-1.7 1.4-3.1 3.1-3.1 1.7 0 3.1 1.4 3.1 3.1v49.8l.8.4c2.7 1.5 4.4 4.3 4.4 7.3 0 4.6-3.8 8.3-8.3 8.3z"/>
        <path d="M64.4 71.6V23.3c0-.8-.7-1.5-1.5-1.5s-1.5.7-1.5 1.5v48.3c-1.8.6-3.1 2.3-3.1 4.3 0 2.5 2.1 4.6 4.6 4.6 2.5 0 4.6-2.1 4.6-4.6 0-2-1.3-3.7-3.1-4.3z"/>
    </g>
</svg>
