<svg xmlns="http://www.w3.org/2000/svg" width="204" height="152" viewBox="0 0 204 152">
    <g fill="#423F6A" fill-rule="nonzero">
        <path d="M201.04 46.955l-14.927-3.136L177.6 2.787a3.39 3.39 0 0 0-1.462-2.15 3.407 3.407 0 0 0-2.554-.487L75.42 20.553l-45.187-9.496c-1.84-.398-3.635.793-4.02 2.625l-3.756 17.88-19.75 4.104A3.399 3.399 0 0 0 .07 39.68L10.35 89.21l-4.768 22.717a3.397 3.397 0 0 0 2.624 4.022l8.054 1.692 4.213 20.315a3.39 3.39 0 0 0 1.463 2.149 3.388 3.388 0 0 0 2.553.487l50.773-10.552 103.752 21.805a3.404 3.404 0 0 0 2.556-.48 3.402 3.402 0 0 0 1.467-2.145l9.13-43.475 3.21-.673a3.395 3.395 0 0 0 2.63-4.013l-2.413-11.636 8.074-38.448c.186-.883.014-1.8-.48-2.557a3.418 3.418 0 0 0-2.148-1.463zM171.641 7.493l7.22 34.8-5.355-1.126-1.28-6.15c-.008-.033-.005-.067-.012-.101a3.396 3.396 0 0 0-4.03-2.636c-.004 0-.007.002-.011.004-8.179 1.674-16.2-3.587-17.895-11.762a3.394 3.394 0 0 0-4.016-2.637c-.013.003-.025.01-.036.012l-41.965 8.717-12.242-2.573L171.64 7.493zm-27.038 17.68a21.758 21.758 0 0 0 8.475 10.624c1.085.713 2.228 1.286 3.396 1.79l-35.604-7.484 23.733-4.93zm21.587 14.168l.063.301-1.161-.244c.364 0 .731-.036 1.098-.057zm-145.257-.525l-7.095 33.782L7.41 41.626l13.524-2.81zm5.5 94.436l-2.922-14.084 35.147 7.387-32.224 6.697zm162.365-44.529l-2.825 13.455-8.888 42.323-101.123-21.252-56.13-11.797L12.927 110l4.217-20.088 11.505-54.779 3.513-16.731 42.558 8.943 107.824 22.663 13.777 2.894-7.522 35.821z"/>
        <path d="M171.53 56.297a3.397 3.397 0 0 0-2.624-4.022L57.51 28.862c-1.833-.4-3.635.793-4.02 2.625-1.718 8.18-9.768 13.437-17.945 11.722a3.384 3.384 0 0 0-4.02 2.625l-8.147 38.8a3.397 3.397 0 0 0 1.333 3.445c.018.012.034.03.054.044.039.027.086.045.127.07.333.21.702.376 1.112.462h.002a15.054 15.054 0 0 1 9.575 6.547 15.063 15.063 0 0 1 2.137 11.406 3.397 3.397 0 0 0 2.624 4.022l111.394 23.412a3.396 3.396 0 0 0 4.02-2.625 15.06 15.06 0 0 1 6.545-9.582 15.035 15.035 0 0 1 11.4-2.135c.625.136 1.24.077 1.802-.118.016-.007.034-.01.05-.016.333-.12.64-.297.919-.514l.095-.077a3.37 3.37 0 0 0 .684-.77c.024-.038.043-.08.065-.118.181-.31.328-.645.408-1.014l8.147-38.8a3.397 3.397 0 0 0-2.624-4.021c-8.179-1.722-13.435-9.775-11.717-17.955zm-12.942 59.85a21.75 21.75 0 0 0-8.5 10.607L44.781 104.621a21.76 21.76 0 0 0-3.515-13.133 21.779 21.779 0 0 0-10.604-8.504l6.868-32.716c.379.02.759.06 1.132.06 9.046 0 17.275-5.649 20.503-14.178l105.307 22.133c-.494 9.487 5.236 18.267 14.114 21.633l-6.868 32.711a21.74 21.74 0 0 0-13.13 3.52z"/>
        <path d="M110.522 53.364a28.766 28.766 0 0 0-5.926-.618c-13.478 0-25.275 9.591-28.05 22.806-1.576 7.503-.136 15.17 4.052 21.589 4.19 6.42 10.626 10.825 18.128 12.402 1.951.412 3.946.618 5.924.618 13.48 0 25.277-9.591 28.052-22.806 1.576-7.503.139-15.171-4.052-21.591-4.19-6.42-10.63-10.826-18.128-12.4zm15.532 32.592c-2.119 10.087-11.122 17.41-21.406 17.41-1.51 0-3.033-.158-4.527-.473a21.762 21.762 0 0 1-13.836-9.466 21.786 21.786 0 0 1-3.095-16.478c2.119-10.087 11.122-17.411 21.406-17.411 1.51 0 3.036.158 4.53.473a21.756 21.756 0 0 1 13.836 9.464 21.78 21.78 0 0 1 3.092 16.48z"/>
    </g>
</svg>
