<svg xmlns="http://www.w3.org/2000/svg" width="74" height="86" viewBox="0 0 74 86">
    <g fill="#423F6A" fill-rule="nonzero">
        <path d="M62.637 7.133H31.413c-2.413 0-4.258 1.855-4.258 4.28v22.826c0 2.425 1.845 4.28 4.258 4.28h31.224c2.412 0 4.257-1.855 4.257-4.28V11.413c0-2.425-1.987-4.28-4.257-4.28zm1.419 27.106c0 .856-.568 1.426-1.42 1.426H31.414c-.852 0-1.42-.57-1.42-1.426V11.413c0-.856.568-1.427 1.42-1.427h31.224c.851 0 1.419.57 1.419 1.427v22.826z"/>
        <path d="M55.54 21.4H38.51c-.852 0-1.42.57-1.42 1.426s.568 1.426 1.42 1.426h17.03c.852 0 1.42-.57 1.42-1.426s-.71-1.427-1.42-1.427z"/>
        <path d="M68.314 0H12.963C9.84 0 7.286 2.568 7.286 5.706v1.427H4.447c-2.413 0-4.258 1.855-4.258 4.28 0 2.425 1.845 4.28 4.258 4.28h2.839v7.133H4.447c-2.413 0-4.258 1.854-4.258 4.28 0 2.425 1.845 4.28 4.258 4.28h2.839v7.133H4.447c-2.413 0-4.258 1.854-4.258 4.28 0 2.425 1.845 4.28 4.258 4.28h2.839v7.132H4.447c-2.413 0-4.258 1.855-4.258 4.28 0 2.425 1.845 4.28 4.258 4.28h2.839v7.133H4.447c-2.413 0-4.258 1.855-4.258 4.28 0 2.425 1.845 4.28 4.258 4.28h2.839v1.426c0 3.139 2.554 5.707 5.677 5.707h55.35c3.123 0 5.678-2.568 5.678-5.707V5.706C73.99 2.568 71.436 0 68.314 0zM4.447 12.84c-.852 0-1.42-.714-1.42-1.427 0-.713.568-1.427 1.42-1.427h8.516c.851 0 1.419.57 1.419 1.427 0 .856-.568 1.427-1.42 1.427H4.448zm0 15.692c-.852 0-1.42-.57-1.42-1.426s.568-1.427 1.42-1.427h8.516c.851 0 1.419.57 1.419 1.427 0 .856-.568 1.426-1.42 1.426H4.448zm0 15.693c-.852 0-1.42-.57-1.42-1.427 0-.856.568-1.426 1.42-1.426h8.516c.851 0 1.419.57 1.419 1.426s-.568 1.427-1.42 1.427H4.448zm0 15.693c-.852 0-1.42-.57-1.42-1.427 0-.856.568-1.426 1.42-1.426h8.516c.851 0 1.419.57 1.419 1.426s-.568 1.427-1.42 1.427H4.448zM8.705 75.61H4.447c-.852 0-1.42-.571-1.42-1.427 0-.856.568-1.427 1.42-1.427h8.516c.851 0 1.419.57 1.419 1.427 0 .856-.568 1.427-1.42 1.427H8.706zm11.354 7.133h-7.096c-1.562 0-2.839-1.284-2.839-2.854v-1.426h2.839c2.412 0 4.257-1.855 4.257-4.28 0-2.425-1.845-4.28-4.257-4.28h-2.839v-7.133h2.839c2.412 0 4.257-1.855 4.257-4.28 0-2.425-1.845-4.28-4.257-4.28h-2.839v-7.133h2.839c2.412 0 4.257-1.854 4.257-4.28 0-2.425-1.845-4.28-4.257-4.28h-2.839v-7.132h2.839c2.412 0 4.257-1.855 4.257-4.28 0-2.426-1.845-4.28-4.257-4.28h-2.839v-7.133h2.839c2.412 0 4.257-1.855 4.257-4.28 0-2.425-1.845-4.28-4.257-4.28h-2.839V5.706c0-1.569 1.277-2.853 2.839-2.853h7.096v79.89zm51.093-2.854c0 1.57-1.277 2.854-2.838 2.854H22.897V2.854h45.417c1.56 0 2.838 1.283 2.838 2.852V79.89z"/>
    </g>
</svg>
