<svg xmlns="http://www.w3.org/2000/svg" width="78" height="89" viewBox="0 0 78 89">
    <g fill="#423F6A" fill-rule="evenodd">
        <path d="M63.238-.005c2.672.022 5.247.931 7.156 2.844l6.72 6.687c.749.742.749 2.103 0 2.844-20.445 20.381-40.006 39.974-61.25 61.219-1.365 1.373-3.167 2.078-4.97 2.156a5.856 5.856 0 0 1-4.812.594l-2.844 1.5c-.752.392-1.751.236-2.347-.367-.597-.603-.741-1.604-.34-2.352l1.468-2.812c-.501-1.607-.315-3.381.594-4.844.08-1.806.796-3.608 2.156-4.969l40.688-40.687L58.613 8.65a2.025 2.025 0 0 1 1.438-.593c.511.012 1.015.23 1.375.593l6.875 6.875 4.562-4.593-5.312-5.282c-1.33-1.333-3.286-1.885-5.625-1.562-2.34.323-4.952 1.576-7.094 3.719L40.769 21.87c-.74.752-2.103.753-2.846.002-.742-.75-.726-2.113.033-2.845L51.988 4.995C54.715 2.268 58.06.577 61.363.12c.62-.085 1.258-.13 1.875-.125zM60.02 12.901l-11.75 11.75L7.613 65.34c-.713.713-1.053 1.646-1 2.656.021.495-.15.996-.469 1.375-.466.558-.534 1.384-.156 2.094.114.213.188.448.219.687.24.031.474.106.687.22.726.383 1.537.304 2.094-.157a2.023 2.023 0 0 1 1.406-.469c.996.052 1.948-.254 2.657-.969L53.707 30.09l11.75-11.75-5.438-5.438zM43.167 74.895a2 2 0 1 1 0 4h-23.68a2 2 0 1 1 0-4h23.68zM50.317 84.005a2 2 0 1 1 0 4H2.967a2 2 0 1 1 0-4h47.35z"/>
    </g>
</svg>
