<svg xmlns="http://www.w3.org/2000/svg" width="56" height="101" viewBox="0 0 56 101">
    <path fill="#423F6A" fill-rule="nonzero" d="M55.458.306H.296v9.396h5.02v5.404h5.734c-.01.205-.025.415-.025.614 0 5.517 2.938 10.383 7.388 13.24a26.5 26.5 0 0 0-.231 3.46c0 3.543 1.728 9.09 1.777 9.235.047.19 4.592 19.257.048 33.932-1.194 2.722-1.825 5.969-1.825 9.391 0 8.812 4.127 15.716 9.395 15.716s9.396-6.904 9.396-15.716c0-3.52-1.547-9.045-1.623-9.317-4.579-14.666-.023-33.814.011-33.957.066-.234 1.612-5.763 1.612-9.284 0-1.175-.083-2.332-.231-3.46 4.45-2.854 7.388-7.722 7.388-13.24 0-.198-.016-.408-.025-.613h5.94V9.703h5.416V.306h-.003zM13.881 15.72c0-.199.006-.402.02-.614h.96c.918 2.975 2.929 5.454 5.542 7.075a19.27 19.27 0 0 0-1.393 3.725c-3.122-2.4-5.129-6.07-5.129-10.186zm13.695 64.046c.497.367 1.543 2.479 1.543 6.158 0 3.68-1.046 5.792-1.543 6.16-.498-.368-1.544-2.481-1.544-6.16.001-3.678 1.047-5.79 1.544-6.158zm0-50.972a14.12 14.12 0 0 1-6.002-1.341c.327-1.48.79-2.85 1.392-4.029a13.626 13.626 0 0 0 9.218-.002c.601 1.18 1.066 2.55 1.393 4.032a14.13 14.13 0 0 1-6.001 1.34zm0-7.404c-4.325 0-8.143-2.557-9.683-6.284h19.365c-1.541 3.723-5.367 6.284-9.682 6.284zm6.538 11.029c0 3.132-1.491 8.466-1.519 8.569-.197.812-4.79 20.09.013 35.475.016.053 1.506 5.383 1.506 8.514 0 7.704-3.38 12.878-6.538 12.878-3.158 0-6.538-5.174-6.538-12.878 0-3.02.573-5.978 1.616-8.325l.057-.152c4.815-15.423.222-34.7 0-35.602-.017-.053-1.672-5.37-1.672-8.48 0-.692.039-1.371.096-2.043 1.563.638 3.25 1.04 5.014 1.185v45.745c-2.03 1.22-2.972 5.03-2.972 8.619 0 4.347 1.377 9.027 4.4 9.027 3.023 0 4.401-4.68 4.401-9.027 0-3.59-.941-7.398-2.972-8.62V31.563a16.964 16.964 0 0 0 5.013-1.185c.055.67.095 1.35.095 2.042zm2.027-6.513a19.305 19.305 0 0 0-1.395-3.728c2.613-1.623 4.625-4.101 5.544-7.072h.963c.012.212.019.415.019.614-.001 4.116-2.01 7.788-5.131 10.186zm11.045-13.637H8.173V9.702h39.013v2.567zm5.415-5.404H3.153V3.143h49.45v3.722H52.6z"/>
</svg>
