<svg xmlns="http://www.w3.org/2000/svg" width="37" height="100" viewBox="0 0 37 100">
    <path fill="#423F6A" fill-rule="nonzero" d="M35.15 31.481h-3.7V25c0-2.593-2.035-4.63-4.625-4.63H25.9V18.52c0-1.112-.37-2.038-1.11-2.593v-2.963c0-3.519.37-3.704 2.96-3.704h5.55c1.11 0 1.85-.74 1.85-1.852V1.852C35.15.74 34.41 0 33.3 0h-9.99c-2.59 0-4.995.74-7.03 2.037-1.48 1.111-3.33 1.667-5.18 1.667H1.85C.74 3.704 0 4.444 0 5.556v5.555c0 1.111.74 1.852 1.85 1.852h10.175v3.148c-.555.556-.925 1.482-.925 2.408v1.851h-.925c-2.59 0-4.625 2.037-4.625 4.63v6.481h-3.7c-1.11 0-1.85.741-1.85 1.852v64.815C0 99.26.74 100 1.85 100h33.3c1.11 0 1.85-.74 1.85-1.852V33.333c0-1.11-.74-1.852-1.85-1.852zM18.5 96.296H3.7V81.481h20.35c1.11 0 1.85-.74 1.85-1.851V46.296c0-1.11-.74-1.852-1.85-1.852H3.7v-9.259h29.6v61.111H18.5zm3.7-18.518H3.7v-29.63h18.5v29.63zM18.5 20.37h-3.7V18.52h7.4v1.851h-3.7zm2.59-7.407v1.852h-5.365V11.11c0-1.111-.74-1.852-1.85-1.852H3.7V7.407h7.4c2.59 0 4.995-.74 7.03-2.037 1.665-1.11 3.33-1.666 5.18-1.666h8.14v1.852h-3.7c-5.55 0-6.66 2.777-6.66 7.407zM9.25 25c0-.556.37-.926.925-.926h16.65c.555 0 .925.37.925.926v6.481H9.25V25z"/>
</svg>
