<svg xmlns="http://www.w3.org/2000/svg" width="78" height="89" viewBox="0 0 78 89">
    <g fill="#423F6A" fill-rule="nonzero">
        <path d="M72.782 14.611a113.96 113.96 0 0 0-13.456-3.24l.72-1.77L53.423 0H24.577l-6.623 9.6.72 1.77a114.8 114.8 0 0 0-13.456 3.241A7.146 7.146 0 0 0 .14 21.48v60.338C.14 85.777 3.373 89 7.343 89h63.331c3.97 0 7.203-3.224 7.203-7.183V21.462a7.162 7.162 0 0 0-5.095-6.85zm-15.986-4.66l-6.114 14.857-9.275-8.602 11.12-12.457 4.269 6.202zM49.47 2.873L39 14.611 28.53 2.873h20.94zm-23.997.876l11.12 12.457-9.275 8.602L21.204 9.95l4.269-6.202zm7.765 82.378H7.326a4.313 4.313 0 0 1-4.322-4.31V21.462c0-1.91 1.23-3.557 3.057-4.118 4.48-1.384 9.1-2.452 13.72-3.258l6.43 15.645 7.027-6.5v62.896zm8.643 0H36.12V20.568L39 17.905l2.881 2.663v65.559zm33.097-4.31a4.313 4.313 0 0 1-4.321 4.31H44.762V23.23l7.027 6.5 6.447-15.663c4.62.806 9.241 1.892 13.72 3.276a4.27 4.27 0 0 1 3.04 4.118v60.355h-.018z"/>
        <path d="M37.559 24.405h2.881v2.873h-2.881zM37.559 41.627h2.881V44.5h-2.881zM37.559 58.849h2.881v2.873h-2.881zM37.559 76.088h2.881v2.873h-2.881zM50.507 51.683c0 3.96 3.232 7.183 7.202 7.183h5.763c3.97 0 7.202-3.223 7.202-7.183V38.771H50.507v12.912zm2.88-10.056h14.389V44.5H53.388v-2.873zm0 5.746h14.389v4.31a4.313 4.313 0 0 1-4.322 4.31h-5.762a4.313 4.313 0 0 1-4.322-4.31v-4.31h.018z"/>
    </g>
</svg>
