<svg xmlns="http://www.w3.org/2000/svg" width="98" height="95" viewBox="0 0 98 95">
    <g fill="#423F6A" fill-rule="nonzero">
        <path d="M22.867 39.31c-4.503 0-8.167 3.674-8.167 8.19v13.103c0 4.516 3.664 8.19 8.167 8.19h52.266c4.503 0 8.167-3.674 8.167-8.19V47.5c0-4.516-3.664-8.19-8.167-8.19H22.867zM75.133 72.07H22.867c-6.303 0-11.434-5.143-11.434-11.466V47.5c0-6.322 5.13-11.466 11.434-11.466h52.266c6.303 0 11.434 5.144 11.434 11.466v13.103c0 6.323-5.13 11.466-11.434 11.466z"/>
        <path d="M49 95C21.981 95 0 81.407 0 64.698c0-.904.73-1.638 1.633-1.638.904 0 1.634.734 1.634 1.638C3.267 79.6 23.783 91.724 49 91.724S94.733 79.6 94.733 64.698c0-.904.73-1.638 1.634-1.638.903 0 1.633.734 1.633 1.638C98 81.407 76.019 95 49 95M71.867 52.414H26.133c-4.503 0-8.166-3.674-8.166-8.19 0-.904.73-1.638 1.633-1.638s1.633.734 1.633 1.638c0 2.71 2.199 4.914 4.9 4.914h45.734c2.701 0 4.9-2.205 4.9-4.914 0-.904.73-1.638 1.633-1.638s1.633.734 1.633 1.638c0 4.516-3.663 8.19-8.166 8.19"/>
        <path d="M49 81.897c-31.826 0-49-8.862-49-17.199 0-4.506 4.319-8.538 12.485-11.662a1.636 1.636 0 0 1 2.109.947 1.642 1.642 0 0 1-.946 2.114C7.05 58.62 3.267 61.755 3.267 64.698c0 6.586 18.781 13.923 45.733 13.923 26.952 0 45.733-7.337 45.733-13.923 0-2.943-3.782-6.078-10.381-8.6a1.642 1.642 0 0 1-.946-2.115 1.634 1.634 0 0 1 2.109-.947C93.68 56.16 98 60.192 98 64.698c0 8.337-17.174 17.199-49 17.199M6.533 31.12a3.275 3.275 0 0 0-3.266 3.277 3.275 3.275 0 0 0 3.266 3.275A3.275 3.275 0 0 0 9.8 34.397a3.275 3.275 0 0 0-3.267-3.276m0 9.827C2.93 40.948 0 38.01 0 34.397c0-3.614 2.93-6.552 6.533-6.552s6.534 2.938 6.534 6.552c0 3.613-2.93 6.551-6.534 6.551M32.667 19.655c-2.702 0-4.9 2.205-4.9 4.914 0 2.71 2.198 4.914 4.9 4.914 2.701 0 4.9-2.205 4.9-4.914 0-2.71-2.199-4.914-4.9-4.914m0 13.104c-4.503 0-8.167-3.674-8.167-8.19s3.664-8.19 8.167-8.19 8.166 3.674 8.166 8.19-3.663 8.19-8.166 8.19M42.467 3.276A3.275 3.275 0 0 0 39.2 6.552a3.275 3.275 0 0 0 3.267 3.276 3.275 3.275 0 0 0 3.266-3.276 3.275 3.275 0 0 0-3.266-3.276m0 9.827c-3.603 0-6.534-2.938-6.534-6.551 0-3.614 2.93-6.552 6.534-6.552C46.07 0 49 2.938 49 6.552c0 3.613-2.93 6.551-6.533 6.551M73.462 39.31c-.343 0-.688-.108-.983-.33a1.642 1.642 0 0 1-.319-2.295c.875-1.163 1.34-2.523 1.34-3.926 0-3.614-2.93-6.552-6.534-6.552-.908 0-1.806.198-2.669.586a1.626 1.626 0 0 1-1.632-.17 1.64 1.64 0 0 1-.663-1.505l.033-.25c.015-.1.031-.197.031-.299 0-2.71-2.197-4.914-4.9-4.914-2.702 0-4.9 2.205-4.9 4.914 0 2.71 2.198 4.914 4.9 4.914.428 0 .879-.077 1.418-.241a1.63 1.63 0 0 1 1.597.377c.426.404.603 1.007.464 1.579-.145.593-.212 1.087-.212 1.56 0 1.404.465 2.764 1.34 3.927.545.722.4 1.75-.32 2.294-.721.544-1.746.4-2.286-.319-1.308-1.738-2.001-3.779-2.001-5.901-4.501 0-8.167-3.674-8.167-8.19s3.666-8.19 8.167-8.19c4.003 0 7.342 2.901 8.034 6.717a9.522 9.522 0 0 1 1.766-.165c5.405 0 9.8 4.408 9.8 9.828 0 2.122-.69 4.163-2 5.901-.32.426-.81.65-1.304.65"/>
    </g>
</svg>
