<svg xmlns="http://www.w3.org/2000/svg" width="87" height="87" viewBox="0 0 87 87">
    <path fill="#423F6A" fill-rule="nonzero" d="M83.05 13.642l-1.676-.817c-.551-1.121-1.494-2.19-2.677-2.767L60.067.97c-2.662-1.298-5.985-.239-7.329 2.516L30.52 49.043a2.337 2.337 0 0 1-1.604 1.289l-18.066 2.516C4.046 54.036-.496 60.347.554 66.949l.894 5.673c.526 3.424 2.321 6.248 5.137 8.23.544.388 1.135.676 1.58 1.015.746.973 1.638 1.895 2.725 2.669.543.387 1.185.822 1.777 1.11 2.366 1.154 5.017 1.472 7.66 1.056l27.85-4.564c5.237-.978 9.663-4.3 11.967-9.023l25.435-52.15c1.295-2.656.132-6.025-2.53-7.323zm-35.657 63.85l-27.95 4.517a7.792 7.792 0 0 1-5.847-1.27c-.099-.047-.198-.095-.15-.194.736-.007 1.373-.061 2.108-.068l27.95-4.517c4.305-.822 7.954-3.55 9.874-7.485l15.164-31.093 3.056 1.49-15.74 32.274c-1.73 3.297-4.844 5.676-8.465 6.346zm-41.245-5.5l-.893-5.673c-.583-4.06 2.17-7.955 6.184-8.677l18.212-2.566a7.054 7.054 0 0 0 5.157-3.819l12.478-25.582 19.813 9.663-15.645 32.077c-1.632 3.345-4.744 5.724-8.366 6.394L15.14 78.326a7.792 7.792 0 0 1-5.848-1.27c-1.73-1.208-2.778-3.06-3.143-5.064zm70.74-56.726l-2.255 4.624-19.813-9.663 2.256-4.625c.144-.295.583-.446.879-.301l18.63 9.086c.296.144.496.485.304.879zm-26.867 4.8l2.112-4.329L71.946 25.4l-2.112 4.33-19.813-9.664zm18.95 11.435l-.912 1.87-19.814-9.664.912-1.87 19.813 9.664zM53.043 13.868l.912-1.87 19.813 9.664-.911 1.869-19.814-9.663zm28.197 4.982l-2.255 4.625-3.056-1.49 2.544-5.215 2.464 1.202c.296.144.447.583.303.878zm-10.11 12.974l2.112-4.33 3.056 1.491-2.112 4.33-3.056-1.491zm2.144 3.36l-.912 1.87-3.055-1.491.911-1.87 3.056 1.49zm.832-9.46l.911-1.87 3.056 1.49-.912 1.87-3.055-1.49z"/>
</svg>
