<svg xmlns="http://www.w3.org/2000/svg" width="109" height="78" viewBox="0 0 109 78">
    <path fill="#423F6A" fill-rule="nonzero" d="M102.97 24.913h-8.465V6.287c0-3.144-2.55-5.705-5.682-5.705H20.177c-3.131 0-5.682 2.561-5.682 5.705v18.626H6.03c-3.131 0-5.682 2.562-5.682 5.705v34.925c0 1.98 1.507 3.493 3.479 3.493H9.16v8.498h6.957v-8.498h76.648v8.498h6.957v-8.498h5.334c1.972 0 3.48-1.514 3.48-3.493V30.618c0-3.143-2.436-5.705-5.567-5.705zm-81.518 14.32h66.096v6.985H21.452v-6.985zm66.096-10.827v3.842H57.863V7.568h29.685v20.838zM50.905 7.567v24.68H21.452V7.568h29.453zm50.674 54.367H7.42V31.9h7.074v21.304h80.01V31.899h7.074v30.035z"/>
</svg>
