<svg xmlns="http://www.w3.org/2000/svg" width="94" height="85" viewBox="0 0 94 85">
    <g fill="#423F6A" fill-rule="nonzero">
        <path d="M50.677 35.361c.094-.283 2.303-7.048 2.303-16.15V0H16.983v19.211c0 8.699-2.16 15.338-2.183 15.403l-.513 1.553h36.122l.268-.806zM17.48 33.806c.673-2.535 1.853-7.941 1.853-14.595V2.361h31.298v16.85c0 6.94-1.376 12.57-1.944 14.595H17.48z"/>
        <path d="M57.468 19.319v19.21c0 4.031-.464 7.606-.965 10.303H39.415V41.32H3.418v19.212c0 8.698-2.16 15.337-2.183 15.402L.72 77.487h26.56c-.616 3.625-1.363 5.936-1.371 5.962L25.4 85h36.12l.267-.808c.094-.283 2.303-7.047 2.303-16.15V55.487h26.804l.268-.807c.094-.284 2.303-7.048 2.303-16.15v-19.21H57.468zM5.768 60.53V43.68h31.297v16.85c0 6.94-1.376 12.57-1.943 14.595H3.915c.672-2.536 1.853-7.94 1.853-14.595zm55.972 7.512c0 6.941-1.376 12.57-1.943 14.596h-31.21c.305-1.163.719-2.933 1.08-5.152h7.176l.268-.808c.094-.283 2.303-7.047 2.303-16.15v-9.337h16.6c-.397 1.711-.722 2.715-.73 2.74l-.513 1.554h6.97v12.557zM91.115 38.53c0 6.94-1.376 12.57-1.943 14.595H57.965c.672-2.536 1.853-7.942 1.853-14.595V21.68h31.297v16.85z"/>
    </g>
</svg>
