<svg xmlns="http://www.w3.org/2000/svg" width="194" height="155" viewBox="0 0 194 155">
    <path fill="#423F6A" fill-rule="nonzero" d="M178.385 123.503a3.63 3.63 0 0 0-.844-.43c.884-1.331 1.772-2.661 2.657-3.992 1.083-1.629.42-3.127-.836-3.944a3.687 3.687 0 0 0-.613-.517c-18.045-12.07-36.091-24.144-54.136-36.215l6.919-10.394c1.078-1.62.628-3.878-.99-4.96L71.93 23.84C53.737 11.67 31.66-10.407 9.546 5.974c-1.557 1.154-1.62 2.77-.906 4.058.014.072.018.14.035.214.622 2.423.64 3.338-.033 4.347-.627.94-1.968 1.339-3.861 1.5-1.51.129-3.204.84-3.601 2.445-6.602 26.759 22.207 38.722 40.4 50.894l58.611 39.209c1.619 1.083 3.871.634 4.95-.986l6.918-10.394 54.78 36.646c1.623 1.086 3.545-.088 4.449-1.446l2.675-4.022c.007.005.01.01.016.013 5.58 3.907 16.84 13.23 12.29 21.216-2.117 3.72 3.79 6.717 5.9 3.014 6.31-11.064-5.458-23.35-13.784-29.179zM85.598 90.282c7.477-11.232 14.953-22.465 22.432-33.697 1.807 1.207 3.613 2.418 5.42 3.628-7.476 11.231-14.952 22.465-22.431 33.697-1.806-1.21-3.613-2.418-5.421-3.628zM24.694 49.54C14.829 42.94 5.304 36.357 7.542 22.927c1.857-.373 3.453-1.094 4.764-2.069 2.94 1.965 5.877 3.933 8.817 5.898 1.503 1.007 3.704.022 4.45-1.446.888-1.749.05-3.457-1.45-4.46-2.723-1.821-5.447-3.645-8.171-5.468.395-1.589.445-3.342.076-5.205 11.513-7.226 21.232-.935 31.095 5.664l30.472 20.386 24.962 16.698-22.431 33.7-24.962-16.699a92675.576 92675.576 0 0 0-30.47-20.386zm71.795 48.028l22.431-33.7c1.565 1.046 3.127 2.093 4.691 3.138-7.476 11.233-14.955 22.466-22.43 33.7l-4.692-3.138zm19.218-5.784c1.754-2.634 3.507-5.269 5.262-7.903 17.242 11.532 34.482 23.067 51.723 34.6l-5.262 7.903c-17.242-11.532-34.483-23.065-51.723-34.6z"/>
</svg>
