<svg xmlns="http://www.w3.org/2000/svg" width="96" height="92" viewBox="0 0 96 92">
    <g fill="none" fill-rule="evenodd">
        <ellipse cx="18.555" cy="36.453" stroke="#423F6A" stroke-linecap="round" stroke-width="4" rx="6.828" ry="13.684"/>
        <path stroke="#423F6A" stroke-linecap="round" stroke-linejoin="round" stroke-width="4" d="M35.625 36.453v49.531l5.195 3.421 5.196-3.421 5.195 3.421 5.195-3.421 5.196 3.421 5.195-3.421 5.195 3.421 5.195-3.421 5.196 3.421 5.344-3.421 5.343 3.421V36.453c0-18.89-7.57-34.21-17.07-34.21H18.11"/>
        <path fill="#423F6A" fill-rule="nonzero" d="M30.43 69.028h-4.453c6.53-5.504 10.984-17.85 10.984-32.723C36.96 16.373 28.797.607 18.406.607 8.016.607 0 16.373 0 36.453s8.164 35.698 18.555 35.698H30.43c.89 0 1.484-.595 1.484-1.487 0-.893-.594-1.636-1.484-1.636zM2.969 36.453c0-17.7 7.125-32.722 15.586-32.722 8.46 0 15.586 15.022 15.586 32.722 0 17.7-7.125 32.723-15.586 32.723S2.969 54.154 2.969 36.453zM93.516 37.197h-2.97c-.444 0-.741-.297-.741-.744 0-.446.297-.743.742-.743h2.969c.445 0 .742.297.742.743 0 .447-.297.744-.742.744zM84.758 37.197h-5.79c-.445 0-.741-.297-.741-.744 0-.446.296-.743.742-.743h5.789c.445 0 .742.297.742.743 0 .447-.297.744-.742.744zm-11.578 0h-5.79c-.445 0-.742-.297-.742-.744 0-.446.297-.743.743-.743h5.789c.445 0 .742.297.742.743 0 .447-.297.744-.742.744zm-11.578 0h-5.79c-.445 0-.742-.297-.742-.744 0-.446.297-.743.742-.743h5.79c.445 0 .742.297.742.743 0 .447-.297.744-.742.744zm-11.579 0h-5.789c-.445 0-.742-.297-.742-.744 0-.446.297-.743.742-.743h5.79c.445 0 .742.297.742.743 0 .447-.297.744-.743.744z"/>
        <path fill="#423F6A" fill-rule="nonzero" d="M38.594 37.197h-2.969c-.445 0-.742-.297-.742-.744 0-.446.297-.743.742-.743h2.969c.445 0 .742.297.742.743 0 .447-.445.744-.742.744z"/>
    </g>
</svg>
