<svg xmlns="http://www.w3.org/2000/svg" width="67" height="108" viewBox="0 0 67 108">
    <path fill="#423F6A" fill-rule="nonzero" d="M65.236 54.064h-4.931l2.63-25.602c.053-.26.053-.53 0-.79L58.66 14.51l1.742-10.122a1.935 1.935 0 0 0-.257-1.35 1.64 1.64 0 0 0-1.057-.754L49.39.128c-.429-.09-.873.012-1.234.282-.361.27-.609.686-.689 1.156L45.726 11.76 37.41 22.421a1.864 1.864 0 0 0-.329.702l-7.577 30.94h-5.358L21.894 42.09a1.882 1.882 0 0 0-.312-.755l-6.574-9.151-.92-4.872 8.053-1.798c1.907-.414 3.415-2.016 3.848-4.09.433-2.073-.289-4.232-1.843-5.51 1.267-2.374.7-5.409-1.315-7.049.982-1.84.882-4.138-.255-5.868C21.44 1.267 19.478.432 17.572.865l-8.35 1.798C7.955.46 5.43-.44 3.22.527 1.01 1.493-.254 4.048.216 6.6l5.95 31.697c.048.274.155.533.312.755l6.574 9.15 1.101 5.862h-4.8a1.584 1.584 0 0 0-1.23.594 1.91 1.91 0 0 0-.413 1.402l4.931 50.34c.093.915.802 1.606 1.644 1.6h46.02c.841.006 1.55-.685 1.643-1.6l4.931-50.34a1.91 1.91 0 0 0-.412-1.402 1.584 1.584 0 0 0-1.231-.594zM50.443 4.047l6.46 1.33-1.217 7.066-6.459-1.33 1.216-7.066zm-2.547 10.464l7.807 1.618 3.09 9.78-17.044-3.596 6.147-7.802zm-8.037 11.147l19.608 4.045-2.45 24.36H52.91c.296-8.467-1.167-16.81-4.717-17.546-3.978-.81-8.646 8.072-11.144 17.547h-4.142l6.953-28.406zm9.713 28.406h-9.154c2.481-8.99 5.933-13.502 7.1-13.97.822.81 2.383 5.646 2.054 13.97zM18.246 4.389c.587-.129 1.192.095 1.587.587.396.492.521 1.178.33 1.798-.193.62-.673 1.082-1.26 1.21l-3.287.72c-.908.099-1.57.984-1.48 1.977.091.993.9 1.718 1.809 1.618h.328l3.288-.719c.907-.198 1.79.446 1.972 1.438.181.993-.407 1.96-1.315 2.158l-3.287.72c-.908.098-1.57.984-1.48 1.977.091.993.9 1.717 1.809 1.618h.328l3.287-.72c.908-.198 1.791.446 1.973 1.439.181.993-.407 1.959-1.315 2.157l-8.054 1.798-3.287-17.619 8.054-2.157zM16.19 47.07a1.882 1.882 0 0 0-.312-.755l-6.525-9.151L3.437 5.88c-.117-.642.087-1.304.537-1.737a1.568 1.568 0 0 1 1.644-.36c.567.21.989.735 1.106 1.378l5.292 28.172c.05.275.156.534.313.756l6.574 9.15 1.956 10.824h-3.287l-1.38-6.994zm47.22 10.59l-.345 3.595H11.54l-.345-3.595H63.41zm-4.585 46.744H15.764l-3.879-39.553h50.82l-3.88 39.553z"/>
</svg>
