<svg xmlns="http://www.w3.org/2000/svg" width="96" height="96" viewBox="0 0 96 96">
    <path fill="#423F6A" fill-rule="nonzero" d="M88.258 3.097c-2.42 0-4.707 1.167-6.161 3.097H80.36C79.64 2.664 76.512 0 72.774 0H23.226c-3.738 0-6.866 2.665-7.586 6.194h-1.737c-1.454-1.93-3.74-3.097-6.161-3.097C3.473 3.097 0 6.57 0 10.839s3.473 7.742 7.742 7.742c2.42 0 4.707-1.168 6.161-3.097h1.58v66.581h3.098v-3.097h3.096v3.097h3.097v-3.097h3.097V96h3.097v-3.097h3.097V96h3.096v-3.097h3.097V96h3.097v-3.097h3.097V96h3.096v-3.097h3.097V96h3.097v-3.097h3.097V96h3.096v-3.097h3.097V96h3.097v-3.097h3.097V96h3.097v-3.097h3.096V96h3.097V15.484h1.581c1.454 1.93 3.74 3.097 6.161 3.097 4.269 0 7.742-3.473 7.742-7.742 0-4.27-3.473-7.742-7.742-7.742zM77.42 7.742v82.064h-6.193V7.742c0-1.75-.606-3.348-1.589-4.645h3.137a4.65 4.65 0 0 1 4.645 4.645zM23.226 3.097c2.016 0 3.719 1.299 4.36 3.097h-8.719c.64-1.798 2.343-3.097 4.359-3.097zm-11.04 9.29l-.448.77c-.848 1.457-2.342 2.327-3.996 2.327a4.65 4.65 0 0 1-4.645-4.645 4.65 4.65 0 0 1 4.645-4.645c1.654 0 3.148.87 3.996 2.327l.448.77H27.87v3.096H12.186zm6.395 63.484V15.484h9.29V75.87h-9.29zM29.416 3.097H57.29a4.65 4.65 0 0 1 4.645 4.645v72.774h3.097V7.742c0-1.75-.605-3.348-1.588-4.645h.04a4.65 4.65 0 0 1 4.645 4.645v82.064h-3.097v-6.193h-3.097v6.193H30.968V7.742a7.7 7.7 0 0 0-1.552-4.645zm58.842 12.387c-1.654 0-3.148-.87-3.996-2.327l-.448-.77h-3.298V9.29h3.298l.448-.77c.848-1.456 2.342-2.326 3.996-2.326a4.65 4.65 0 0 1 4.645 4.645 4.65 4.65 0 0 1-4.645 4.645z"/>
</svg>
