<svg xmlns="http://www.w3.org/2000/svg" width="95" height="83" viewBox="0 0 95 83">
    <path fill="#423F6A" fill-rule="nonzero" d="M90.763 46.796c-2.56-15.384-7.414-31.939-21.775-35.617a23.59 23.59 0 0 1 2.059-2.797c1.22-1.405 3.982-3.268 2.654-4.374-1.896-1.574-6.257 1.4-6.257 1.4 0-8.922-3.597-4.196-7.577-3.848-2.922.255-6.633-2.626-8.717-.526-2.13 2.147 5.63 6.528 6.791 10.974-5.218 2.063-9.005 6.02-11.838 10.967a23.795 23.795 0 0 0-7.61-3.55c.447-.64.95-1.304 1.51-1.95 1.3-1.5 4.246-3.486 2.831-4.665-2.022-1.68-6.673 1.493-6.673 1.493 0-9.517-3.838-4.476-8.082-4.105-3.118.272-7.077-2.801-9.3-.56-2.093 2.11 4.768 6.242 6.828 10.588-6.313 2.434-10.887 7.286-13.972 12.991C7.667 40.478 5.66 49.22 4.277 57.493c-.607 3.593-1.499 5.542-2.295 7.069-.405.77-.813 1.438-1.205 2.248C.396 67.607 0 68.654 0 69.893c-.005.944.237 1.895.62 2.748 1.024 2.213 2.843 3.613 4.973 4.833 6.405 3.527 17.07 5.483 27.689 5.526 7.056-.004 14.191-.929 20.02-2.536 2.92-.81 5.513-1.785 7.665-2.988 2.131-1.221 3.948-2.619 4.975-4.834.381-.858.62-1.806.618-2.744 0-.418-.055-.807-.13-1.179 13.037-.282 26.116-3.8 28.21-8.522 1.552-3.497-2.327-4.08-3.877-13.4zM63.036 71.418c-2.179 4.919-16.262 8.53-29.787 8.53-13.526 0-27.607-3.611-29.785-8.53-1.546-3.49 2.319-4.073 3.863-13.381 2.69-16.212 7.923-33.74 24.155-36.066h3.536c16.233 2.327 21.466 19.854 24.156 36.067 1.543 9.307 5.409 9.89 3.862 13.38z"/>
</svg>
