<svg xmlns="http://www.w3.org/2000/svg" width="187" height="139" viewBox="0 0 187 139">
    <g fill="#423F6A" fill-rule="nonzero">
        <path d="M108.876 138.134H78.124c-1.662 0-2.908-1.244-3.116-2.903 0-.207-1.455-22.187-11.012-43.752C51.113 63.072 30.75 48.765 3.116 48.765 1.455 48.765 0 47.313 0 45.655V3.975C0 2.318 1.454.866 3.117.866h180.766c1.663 0 3.117 1.452 3.117 3.11v41.678c0 1.66-1.454 3.11-3.117 3.11-27.634 0-48.204 14.515-60.879 42.923-9.765 21.564-11.012 43.544-11.012 43.751 0 1.452-1.454 2.696-3.116 2.696zm-28.05-6.22h25.14c.624-6.843 3.117-24.676 11.22-42.923 13.298-29.237 35.323-45.41 63.58-46.447V7.087H6.234v35.457C34.7 43.581 56.516 59.547 69.606 88.991c8.103 18.247 10.596 36.08 11.22 42.922z"/>
        <path d="M102.227 135.23l-6.234-.414c0-1.037 1.663-24.467 11.844-49.35C121.55 52.082 144.406 32.8 173.91 29.481c2.493-.207 9.558 0 10.389 0l-.208 6.22c-2.078 0-7.688-.207-9.35 0-27.427 2.903-47.997 20.528-60.879 52.046-10.18 23.846-11.635 47.277-11.635 47.484zM84.773 135.23c0-.206-1.454-23.637-11.427-47.69-12.883-31.518-33.453-48.936-60.88-52.046-1.87-.207-7.48 0-9.35 0l-.207-6.22c.831 0 7.688-.208 10.389 0 29.504 3.11 52.36 22.601 66.073 55.985 10.181 24.882 11.636 48.52 11.843 49.35l-6.44.622zM3.117 12.685h180.767v6.221H3.117zM76.254 137.512C25.35 100.602.624 47.313.208 46.899l5.61-2.489c.208.622 24.518 52.253 73.969 88.333l-3.533 4.769zM110.746 137.512l-3.533-4.977c49.66-35.872 73.761-87.71 73.97-88.332l5.61 2.488c-.416.622-25.142 53.912-76.047 90.82z"/>
    </g>
</svg>
